#define 93e8887742df44daa05bc2682977ff9ag5iU1uY1ZvckJ5pL_width 48
#define 93e8887742df44daa05bc2682977ff9ag5iU1uY1ZvckJ5pL_height 48
static char 93e8887742df44daa05bc2682977ff9ag5iU1uY1ZvckJ5pL_bits[] = {
  0x00, 0x00, 0x00, 0x00, 0x00, 0x00, 0x00, 0x00, 0x00, 0x00, 0x00, 0x00, 
  0x00, 0x00, 0x00, 0x00, 0x00, 0x00, 0x00, 0x00, 0x00, 0x00, 0x00, 0x00, 
  0x00, 0x00, 0x00, 0x00, 0x00, 0x00, 0x00, 0x00, 0x00, 0x00, 0x00, 0x00, 
  0x00, 0x00, 0x00, 0x00, 0x00, 0x00, 0x00, 0x00, 0x00, 0x00, 0x00, 0x00, 
  0x00, 0x00, 0x00, 0x00, 0x00, 0x00, 0x00, 0x00, 0x00, 0x00, 0x00, 0x00, 
  0x00, 0xF0, 0x0F, 0xF0, 0x0F, 0x00, 0x00, 0xF0, 0x0F, 0xF0, 0x0F, 0x00, 
  0x00, 0xF0, 0x0F, 0xF0, 0x0F, 0x00, 0x00, 0xF0, 0x0F, 0xF0, 0x0F, 0x00, 
  0x00, 0xF0, 0x0F, 0xF0, 0x0F, 0x00, 0x00, 0xF0, 0x0F, 0xF0, 0x0F, 0x00, 
  0x00, 0xF0, 0x0F, 0xF0, 0x0F, 0x00, 0x00, 0xF0, 0x0F, 0xF0, 0x0F, 0x00, 
  0x00, 0xF0, 0x0F, 0xF0, 0x0F, 0x00, 0x00, 0xF0, 0x0F, 0xF0, 0x0F, 0x00, 
  0x00, 0xF0, 0x0F, 0xF0, 0x0F, 0x00, 0x00, 0xF0, 0x0F, 0xF0, 0x0F, 0x00, 
  0x00, 0xF0, 0x0F, 0xF0, 0x0F, 0x00, 0x00, 0xF0, 0x0F, 0xF0, 0x0F, 0x00, 
  0x00, 0xF0, 0x0F, 0xF0, 0x0F, 0x00, 0x00, 0xF0, 0x0F, 0xF0, 0x0F, 0x00, 
  0x00, 0xF0, 0x0F, 0xF0, 0x0F, 0x00, 0x00, 0xF0, 0x0F, 0xF0, 0x0F, 0x00, 
  0x00, 0xF0, 0x0F, 0xF0, 0x0F, 0x00, 0x00, 0xF0, 0x0F, 0xF0, 0x0F, 0x00, 
  0x00, 0xF0, 0x0F, 0xF0, 0x0F, 0x00, 0x00, 0xF0, 0x0F, 0xF0, 0x0F, 0x00, 
  0x00, 0xF0, 0x0F, 0xF0, 0x0F, 0x00, 0x00, 0xF0, 0x0F, 0xF0, 0x0F, 0x00, 
  0x00, 0xF0, 0x0F, 0xF0, 0x0F, 0x00, 0x00, 0xF0, 0x0F, 0xF0, 0x0F, 0x00, 
  0x00, 0xF0, 0x0F, 0xF0, 0x0F, 0x00, 0x00, 0xF0, 0x0F, 0xF0, 0x0F, 0x00, 
  0x00, 0x00, 0x00, 0x00, 0x00, 0x00, 0x00, 0x00, 0x00, 0x00, 0x00, 0x00, 
  0x00, 0x00, 0x00, 0x00, 0x00, 0x00, 0x00, 0x00, 0x00, 0x00, 0x00, 0x00, 
  0x00, 0x00, 0x00, 0x00, 0x00, 0x00, 0x00, 0x00, 0x00, 0x00, 0x00, 0x00, 
  0x00, 0x00, 0x00, 0x00, 0x00, 0x00, 0x00, 0x00, 0x00, 0x00, 0x00, 0x00, 
  0x00, 0x00, 0x00, 0x00, 0x00, 0x00, 0x00, 0x00, 0x00, 0x00, 0x00, 0x00, 
  };
