#define c22a8e6db97f494fefa68a8654f2a6a36tUKRywgN9IMLsA6_width 48
#define c22a8e6db97f494fefa68a8654f2a6a36tUKRywgN9IMLsA6_height 48
static char c22a8e6db97f494fefa68a8654f2a6a36tUKRywgN9IMLsA6_bits[] = {
  0x00, 0x00, 0x00, 0x00, 0x00, 0x00, 0x00, 0x00, 0x00, 0x00, 0x00, 0x00, 
  0x00, 0x00, 0x00, 0x00, 0x00, 0x00, 0x00, 0x00, 0x00, 0x00, 0x00, 0x00, 
  0x00, 0x00, 0x00, 0x00, 0x00, 0x00, 0x00, 0x00, 0x00, 0x00, 0x00, 0x00, 
  0x00, 0x00, 0x00, 0x00, 0x00, 0x00, 0x00, 0x00, 0x00, 0x00, 0x00, 0x00, 
  0x00, 0x00, 0x00, 0x00, 0x00, 0x00, 0x00, 0x00, 0x00, 0x00, 0x00, 0x00, 
  0x00, 0x00, 0x00, 0x00, 0x00, 0x00, 0x00, 0x00, 0x00, 0x00, 0x00, 0x00, 
  0x00, 0xF0, 0x00, 0x00, 0x08, 0x00, 0x00, 0xF0, 0x00, 0x00, 0x0C, 0x00, 
  0x00, 0xF0, 0x00, 0x00, 0x0F, 0x00, 0x00, 0xF0, 0x00, 0x80, 0x0F, 0x00, 
  0x00, 0xF0, 0x00, 0xC0, 0x0F, 0x00, 0x00, 0xF0, 0x00, 0xF0, 0x0F, 0x00, 
  0x00, 0xF0, 0x00, 0xF8, 0x0F, 0x00, 0x00, 0xF0, 0x00, 0xFE, 0x0F, 0x00, 
  0x00, 0xF0, 0x00, 0x7F, 0x0F, 0x00, 0x00, 0xF0, 0x80, 0x3F, 0x0F, 0x00, 
  0x00, 0xF0, 0xE0, 0x0F, 0x0F, 0x00, 0x00, 0xF0, 0xF0, 0x07, 0x0F, 0x00, 
  0x00, 0xF0, 0xF0, 0x07, 0x0F, 0x00, 0x00, 0xF0, 0xE0, 0x0F, 0x0F, 0x00, 
  0x00, 0xF0, 0xC0, 0x3F, 0x0F, 0x00, 0x00, 0xF0, 0x00, 0x7F, 0x0F, 0x00, 
  0x00, 0xF0, 0x00, 0xFE, 0x0F, 0x00, 0x00, 0xF0, 0x00, 0xF8, 0x0F, 0x00, 
  0x00, 0xF0, 0x00, 0xF0, 0x0F, 0x00, 0x00, 0xF0, 0x00, 0xC0, 0x0F, 0x00, 
  0x00, 0xF0, 0x00, 0x80, 0x0F, 0x00, 0x00, 0xF0, 0x00, 0x00, 0x0F, 0x00, 
  0x00, 0xF0, 0x00, 0x00, 0x0C, 0x00, 0x00, 0xF0, 0x00, 0x00, 0x00, 0x00, 
  0x00, 0x00, 0x00, 0x00, 0x00, 0x00, 0x00, 0x00, 0x00, 0x00, 0x00, 0x00, 
  0x00, 0x00, 0x00, 0x00, 0x00, 0x00, 0x00, 0x00, 0x00, 0x00, 0x00, 0x00, 
  0x00, 0x00, 0x00, 0x00, 0x00, 0x00, 0x00, 0x00, 0x00, 0x00, 0x00, 0x00, 
  0x00, 0x00, 0x00, 0x00, 0x00, 0x00, 0x00, 0x00, 0x00, 0x00, 0x00, 0x00, 
  0x00, 0x00, 0x00, 0x00, 0x00, 0x00, 0x00, 0x00, 0x00, 0x00, 0x00, 0x00, 
  0x00, 0x00, 0x00, 0x00, 0x00, 0x00, 0x00, 0x00, 0x00, 0x00, 0x00, 0x00, 
  };
