#define 3060a88a7c904dfeafd695e0e4e8c7ebPmGbQF2o1q5k0R6t_width 48
#define 3060a88a7c904dfeafd695e0e4e8c7ebPmGbQF2o1q5k0R6t_height 48
static char 3060a88a7c904dfeafd695e0e4e8c7ebPmGbQF2o1q5k0R6t_bits[] = {
  0x00, 0x00, 0x00, 0x00, 0x00, 0x00, 0x00, 0x00, 0x00, 0x00, 0x00, 0x00, 
  0x00, 0x00, 0x00, 0x00, 0x00, 0x00, 0x00, 0x00, 0x00, 0x00, 0x00, 0x00, 
  0x00, 0x00, 0x00, 0x00, 0x00, 0x00, 0x00, 0x00, 0x00, 0x00, 0x00, 0x00, 
  0x00, 0x00, 0x00, 0x00, 0x00, 0x00, 0x00, 0x00, 0x00, 0x00, 0x00, 0x00, 
  0x00, 0x00, 0x00, 0x00, 0x00, 0x00, 0x00, 0x00, 0x00, 0x00, 0x00, 0x00, 
  0x00, 0x00, 0x00, 0x00, 0x00, 0x00, 0x00, 0x00, 0x00, 0x00, 0x00, 0x00, 
  0x00, 0x10, 0x00, 0x00, 0x0F, 0x00, 0x00, 0x30, 0x00, 0x00, 0x0F, 0x00, 
  0x00, 0x70, 0x00, 0x00, 0x0F, 0x00, 0x00, 0xF0, 0x01, 0x00, 0x0F, 0x00, 
  0x00, 0xF0, 0x03, 0x00, 0x0F, 0x00, 0x00, 0xF0, 0x0F, 0x00, 0x0F, 0x00, 
  0x00, 0xF0, 0x1F, 0x00, 0x0F, 0x00, 0x00, 0xF0, 0x7F, 0x00, 0x0F, 0x00, 
  0x00, 0xF0, 0xFE, 0x00, 0x0F, 0x00, 0x00, 0xF0, 0xFC, 0x01, 0x0F, 0x00, 
  0x00, 0xF0, 0xF0, 0x07, 0x0F, 0x00, 0x00, 0xF0, 0xE0, 0x0F, 0x0F, 0x00, 
  0x00, 0xF0, 0xE0, 0x0F, 0x0F, 0x00, 0x00, 0xF0, 0xF0, 0x07, 0x0F, 0x00, 
  0x00, 0xF0, 0xF8, 0x03, 0x0F, 0x00, 0x00, 0xF0, 0xFE, 0x00, 0x0F, 0x00, 
  0x00, 0xF0, 0x7F, 0x00, 0x0F, 0x00, 0x00, 0xF0, 0x1F, 0x00, 0x0F, 0x00, 
  0x00, 0xF0, 0x0F, 0x00, 0x0F, 0x00, 0x00, 0xF0, 0x03, 0x00, 0x0F, 0x00, 
  0x00, 0xF0, 0x01, 0x00, 0x0F, 0x00, 0x00, 0xF0, 0x00, 0x00, 0x0F, 0x00, 
  0x00, 0x30, 0x00, 0x00, 0x0F, 0x00, 0x00, 0x10, 0x00, 0x00, 0x0F, 0x00, 
  0x00, 0x00, 0x00, 0x00, 0x00, 0x00, 0x00, 0x00, 0x00, 0x00, 0x00, 0x00, 
  0x00, 0x00, 0x00, 0x00, 0x00, 0x00, 0x00, 0x00, 0x00, 0x00, 0x00, 0x00, 
  0x00, 0x00, 0x00, 0x00, 0x00, 0x00, 0x00, 0x00, 0x00, 0x00, 0x00, 0x00, 
  0x00, 0x00, 0x00, 0x00, 0x00, 0x00, 0x00, 0x00, 0x00, 0x00, 0x00, 0x00, 
  0x00, 0x00, 0x00, 0x00, 0x00, 0x00, 0x00, 0x00, 0x00, 0x00, 0x00, 0x00, 
  0x00, 0x00, 0x00, 0x00, 0x00, 0x00, 0x00, 0x00, 0x00, 0x00, 0x00, 0x00, 
  };
